<svg xmlns="http://www.w3.org/2000/svg" viewBox="0 0 600 450"><defs><style>.cls-1,.cls-10,.cls-11,.cls-12,.cls-13,.cls-14,.cls-2,.cls-21,.cls-22,.cls-23,.cls-24,.cls-26,.cls-27,.cls-28,.cls-29,.cls-3,.cls-4,.cls-5,.cls-7,.cls-8,.cls-9{fill-rule:evenodd;}.cls-1,.cls-6{opacity:0.1;}.cls-18,.cls-2{fill:#6f7173;}.cls-17,.cls-3{fill:#a3a3a3;}.cls-20,.cls-4{fill:#4f5253;}.cls-19,.cls-5{fill:#c4c4c4;}.cls-7{fill:#a0cf7e;}.cls-8{fill:#709d53;}.cls-44,.cls-9{fill:#ececeb;}.cls-10,.cls-16{fill:#99c26d;}.cls-11{fill:#bfdb8e;}.cls-12{fill:#cececd;}.cls-13,.cls-30{fill:#35785d;}.cls-14,.cls-32{fill:#72c9a6;}.cls-15,.cls-22{fill:#3f8f6f;}.cls-21,.cls-31{fill:#54b08b;}.cls-23{fill:#060808;opacity:0.2;}.cls-24,.cls-40{fill:#858686;}.cls-25{fill:none;stroke:#858686;stroke-miterlimit:10;stroke-width:1.07px;}.cls-26{fill:#446125;}.cls-27{fill:#dddddc;}.cls-28,.cls-38{fill:#dfbda5;}.cls-29,.cls-45{fill:#e8f078;}.cls-33{fill:#5a753d;}.cls-34{fill:#d9e354;}.cls-35{fill:#738d57;}.cls-36{fill:#b8c745;}.cls-37{fill:#2b2b2b;}.cls-39{fill:#c3987b;}.cls-41{fill:#e8cab6;}.cls-42{fill:#8b6651;}.cls-43{fill:#474747;}</style></defs><g id="INFP"><g id="BG-24" data-name="BG"><polygon class="cls-1" points="593.47 401.31 477.11 375.5 426.02 381.24 143.04 349.34 0.26 397.28 141.72 437 356.96 409.66 481.12 425.13 593.47 401.31"/><polygon class="cls-2" points="179.25 332.77 181.65 416.46 200.85 407.2 194.34 332.77 179.25 332.77"/><polygon class="cls-3" points="181.65 335.97 181.65 416.46 160.36 414 168.3 334.55 175.1 332.77 181.65 335.97"/><polygon class="cls-2" points="34.69 400.59 41.31 395.44 53.32 321.89 33.09 312.83 34.69 400.59"/><polygon class="cls-3" points="11.3 317.77 19.1 398.03 34.69 400.59 37.88 320.24 27.58 310.96 11.3 317.77"/><polygon class="cls-4" points="119.89 323.23 119.89 375.1 137.04 376.84 139.37 321.25 119.89 323.23"/><polygon class="cls-2" points="137.04 376.84 149.86 370.69 147.16 326.43 137.04 322.94 137.04 376.84"/><polygon class="cls-3" points="181.65 315.12 184.35 325.24 181.65 335.97 11.3 317.77 8.3 284.21 181.65 315.12"/><polygon class="cls-2" points="265.78 285.94 265.78 314.73 181.65 335.97 181.65 315.12 265.78 285.94"/><polygon class="cls-1" points="231.38 282.05 190.05 288.31 223.76 300.52 265.78 285.94 231.38 282.05"/><polygon class="cls-5" points="265.78 285.94 181.65 321.25 8.3 284.21 89.28 265.95 265.78 285.94"/><polygon class="cls-6" points="83.03 294.74 134.23 306.54 164.09 292.85 83.03 294.74"/><polygon class="cls-7" points="465.11 17.52 436.95 414.73 457.59 417.18 476.46 199.88 486.71 18.75 465.11 17.52"/><polygon class="cls-8" points="486.71 18.75 497.77 23.66 470.74 412.27 457.59 417.18 486.71 18.75"/><polygon class="cls-7" points="441.42 92.24 368.76 399.89 387.76 404.75 430.95 236.94 462.66 96.27 441.42 92.24"/><polygon class="cls-8" points="461.51 96.27 471.9 101.7 401.34 402.76 387.76 404.75 461.51 96.27"/><polygon class="cls-7" points="502.31 132.51 558.9 402.39 538.56 406.23 504.15 258.94 480.92 135.61 502.31 132.51"/><polygon class="cls-8" points="480.92 135.61 470.28 140.13 525.12 404.22 538.56 406.23 480.92 135.61"/><polygon class="cls-5" points="587.99 72.92 597.39 74.15 583.2 298.47 574.71 301.3 578.03 177.52 587.99 72.92"/><polygon class="cls-8" points="589.1 57.56 598.5 61.25 597.39 74.15 587.99 72.92 586.05 65.86 589.1 57.56"/><polygon class="cls-9" points="339.37 60.02 464.23 60.7 587.93 73.71 574.71 301.3 328.03 282.38 339.37 60.02"/><polygon class="cls-10" points="339.37 60.02 339.9 46.39 589.1 57.56 587.99 72.92 339.37 60.02"/><polygon class="cls-11" points="499.32 61.74 498.3 80.17 446.09 77.51 446.91 59.49 499.32 61.74"/><polygon class="cls-12" points="163.25 226.69 173 221.97 173 237.87 163.08 246.69 163.25 226.69"/><polygon class="cls-13" points="49.75 266.66 143.32 270.29 140.39 294.02 49.75 284.08 49.75 266.66"/><polygon class="cls-12" points="140.39 273.83 154.61 266.53 173.53 262.33 173.53 280.1 140.39 294.02 140.39 273.83"/><polygon class="cls-14" points="49.75 266.66 86.3 255.28 173.53 262.33 140.39 273.83 49.75 266.66"/><polygon class="cls-15" points="119.39 269.45 120.86 260.26 119.39 251.74 38.5 249.05 38.5 263.63 119.39 269.45"/><polygon class="cls-12" points="119.39 251.74 152.53 244.92 152.53 259.08 119.39 269.45 119.39 251.74"/><polygon class="cls-14" points="152.53 244.92 78.94 240.78 38.5 249.05 119.39 254.1 152.53 244.92"/><polygon class="cls-13" points="165.2 226.69 74.56 229.56 74.56 246.1 163.08 246.69 165.2 226.69"/><polygon class="cls-14" points="173 221.97 88.69 220.93 74.56 229.56 163.25 229.05 173 221.97"/><polygon class="cls-15" points="152.53 210.08 64.81 207.72 66.76 226.05 152.53 226.05 152.53 210.08"/><polygon class="cls-12" points="66.76 207.72 57.68 200.43 57.68 215.03 66.76 226.05 66.76 207.72"/><polygon class="cls-14" points="57.68 200.43 138.89 200.43 152.53 210.08 66.76 210.08 57.68 200.43"/><polygon class="cls-9" points="135 251.82 130.78 221.33 118.82 221.71 117.28 251.15 95.28 288.18 103.06 297.81 127.54 297.05 152.02 296.28 159.09 286.18 135 251.82"/><polygon class="cls-16" points="154.76 286.18 141.74 267.6 110.82 269.01 99.59 287.9 104.83 294.39 150.01 292.97 154.76 286.18"/><polygon class="cls-17" points="92.31 122.05 83.34 118.34 48.75 170.08 69.44 160.47 92.31 122.05"/><polygon class="cls-17" points="73.57 98.15 90.98 94.38 92.05 116.55 83.34 118.34 73.57 98.15"/><polygon class="cls-17" points="87.55 146.03 96.49 161.62 103.04 159.75 98.3 141.21 87.55 146.03"/><polygon class="cls-18" points="74.23 111.89 85.67 150.94 105.42 146.21 96.68 107.37 74.23 111.89"/><polygon class="cls-17" points="91.89 172 98.32 199.58 107.16 199.16 98.18 167.81 91.89 172"/><polygon class="cls-19" points="86.09 175.72 83.11 171.73 117.99 162.65 118.27 168.4 86.09 175.72"/><polygon class="cls-19" points="48.75 170.08 69.44 160.47 100.1 200.32 91.46 204.88 48.75 170.08"/><polygon class="cls-20" points="48.67 206.96 55.28 195.45 120.34 195.77 128.46 205.37 48.67 206.96"/><polygon class="cls-17" points="115.88 189 120.34 195.77 55.28 195.45 57.96 189.87 115.88 189"/></g><g id="bg-25" data-name="bg"><polygon class="cls-21" points="531.73 283.1 515.13 281.64 519.31 223.18 535.9 224.64 531.73 283.1"/><polygon class="cls-10" points="506.84 280.91 490.25 279.45 495.08 211.69 511.68 213.15 506.84 280.91"/><polygon class="cls-13" points="556.62 285.3 540.03 283.84 542.87 243.97 559.46 245.44 556.62 285.3"/></g><g id="bg-26" data-name="bg"><polygon class="cls-22" points="518.71 154.17 519.63 159.65 523.48 164.12 525.03 160.12 518.71 154.17"/><polygon class="cls-22" points="525.91 169.64 513.44 173.15 516.76 177.62 527.06 176.14 527.26 174.37 525.91 169.64"/><polygon class="cls-22" points="533.49 172.13 533.68 162.91 530.57 155.78 528.48 168.09 533.49 172.13"/><polygon class="cls-14" points="551.43 192.52 529.34 167.41 527.25 168.63 525.51 171.04 545.99 198.61 551.43 192.52"/><polygon class="cls-21" points="545.98 203.7 527.06 176.14 525.51 171.04 546.09 197.82 546.81 200.48 545.98 203.7"/><polygon class="cls-22" points="551.43 192.52 551.79 197.79 545.98 203.7 546.09 197.82 551.43 192.52"/><polygon class="cls-21" points="529.34 167.41 530.57 155.78 518.71 154.17 524.16 160.81 518.44 165.92 511.8 160.16 513.44 173.15 525.51 171.04 529.34 167.41"/><polygon class="cls-11" points="520.23 167.94 525.75 163 527.48 165.01 521.92 169.95 520.23 167.94"/><path class="cls-10" d="M522,166.39l-.82.73.78,2.83.79-.7-.75-2.86Zm3.54.38,1-.88-.73-2.89-.89.79.63,3Zm-1.89,1.67,1.07-.95-1-2.67-.75.67Z"/><polygon class="cls-23" points="545.67 185.98 540.19 190.15 539.65 194.48 536.16 189.39 536.93 185.91 542.14 181.96 545.67 185.98"/><polygon class="cls-10" points="553.67 156.23 551.58 152.47 548.36 149.47 543.18 148.98 543 151.02 546.04 153.23 545.12 163.68 549.46 159.59 553.67 156.23"/><polygon class="cls-7" points="551.85 155.06 548.36 149.47 554.45 150.94 558.91 156.64 555.49 157.4 551.85 155.06"/><polygon class="cls-5" points="523.58 190.99 549.42 168.45 550.42 171.24 537.64 185.1 523.74 197.55 523.58 190.99"/><polygon class="cls-24" points="523.74 197.55 550.42 171.24 552.5 172.98 529.71 198.89 523.74 197.55"/><polygon class="cls-11" points="551.85 155.06 563.79 157.73 569.6 173.93 557.09 173.03 550.87 158.03 551.85 155.06"/><polygon class="cls-7" points="551.85 155.06 557.57 171.91 554.85 175.2 549.62 180.28 545.12 163.68 551.85 155.06"/><polygon class="cls-10" points="557.57 171.91 569.61 173.93 563.85 181.63 549.62 180.28 557.57 171.91"/><polygon class="cls-11" points="558.76 175.24 563.69 175.7 564.71 178.24 557.74 178.35 558.76 175.24"/><polygon class="cls-7" points="558.76 175.24 556.15 178.07 559.29 177.73 558.76 175.24"/><polygon class="cls-14" points="566.99 177.42 555.67 176.49 557.53 181.54 563.68 183.54 568.97 182.11 566.99 177.42"/><polygon class="cls-21" points="555.67 176.49 558.24 181.1 557.14 185.18 553.78 190.82 551.13 184.28 555.67 176.49"/><polygon class="cls-22" points="558.24 181.1 568.97 182.11 564.18 189.88 553.78 190.82 558.24 181.1"/></g><g id="bg-27" data-name="bg"><line class="cls-25" x1="497.34" y1="92.61" x2="575.78" y2="98.39"/><line class="cls-25" x1="496.96" y1="98.88" x2="550.5" y2="102.82"/><line class="cls-25" x1="496.59" y1="105.14" x2="562.58" y2="110.01"/><line class="cls-25" x1="496.21" y1="111.41" x2="539.79" y2="114.63"/><line class="cls-25" x1="495.84" y1="117.68" x2="528.21" y2="120.07"/><line class="cls-25" x1="495.46" y1="123.95" x2="549" y2="127.9"/><line class="cls-25" x1="495.09" y1="130.22" x2="523.73" y2="132.33"/><line class="cls-25" x1="341.22" y1="266.29" x2="469.22" y2="277.46"/><line class="cls-25" x1="341.66" y1="260.03" x2="425.87" y2="267.37"/><line class="cls-25" x1="342.1" y1="253.76" x2="385.89" y2="257.58"/><line class="cls-25" x1="342.55" y1="247.5" x2="433.49" y2="255.43"/><line class="cls-25" x1="342.99" y1="241.23" x2="406.99" y2="246.82"/><line class="cls-25" x1="343.43" y1="234.97" x2="451.22" y2="244.38"/><line class="cls-25" x1="343.88" y1="228.71" x2="387.66" y2="232.53"/><line class="cls-25" x1="344.32" y1="222.44" x2="404.95" y2="227.73"/></g><g id="bg-28" data-name="bg"><polygon class="cls-8" points="409.85 157.59 433.58 143.51 457.31 137.97 464.63 172.72 440.04 169.5 409.85 157.59"/><polygon class="cls-22" points="457.31 137.97 437.24 116.44 419.44 136.56 409.85 157.59 457.31 137.97"/><polygon class="cls-13" points="437.24 116.44 401.63 114.74 401.63 140.32 409.85 157.59 437.24 116.44"/><polygon class="cls-14" points="401.63 114.74 368.44 151.63 389.14 157.59 409.85 157.59 401.63 114.74"/><polygon class="cls-26" points="368.44 151.63 375.34 179.22 393.89 171.55 409.85 157.59 368.44 151.63"/><polygon class="cls-10" points="375.34 179.22 390.65 199.2 401.63 182.55 409.85 157.59 375.34 179.22"/><polygon class="cls-8" points="409.85 157.59 390.65 199.2 429.47 206 422.68 181.79 409.85 157.59"/><polygon class="cls-11" points="429.47 206 464.63 172.72 409.85 157.59 429.47 206"/><path class="cls-27" d="M487,118.31a10.77,10.77,0,1,0-10.77,10.77A10.77,10.77,0,0,0,487,118.31Z"/><polygon class="cls-28" points="471.24 113.93 478.56 109.17 480.87 120.65 473.55 120.65 471.24 113.93"/><polygon class="cls-10" points="473.55 120.65 480.87 120.65 477.78 127.45 473.55 124.65 473.55 120.65"/><path class="cls-27" d="M455.12,99.11a10.77,10.77,0,1,0-10.77,10.77A10.77,10.77,0,0,0,455.12,99.11Z"/><polygon class="cls-28" points="439.32 94.73 446.64 89.97 448.95 101.44 441.63 101.44 439.32 94.73"/><polygon class="cls-14" points="441.63 101.44 448.95 101.44 445.86 108.25 441.63 105.45 441.63 101.44"/><path class="cls-27" d="M396.88,100.67a10.77,10.77,0,1,0-10.77,10.77A10.77,10.77,0,0,0,396.88,100.67Z"/><polygon class="cls-28" points="381.08 96.29 388.4 91.53 390.71 103.01 383.39 103.01 381.08 96.29"/><polygon class="cls-7" points="383.39 103.01 390.71 103.01 387.63 109.81 383.39 107.01 383.39 103.01"/><path class="cls-27" d="M473.59,210.68a10.77,10.77,0,1,0-10.77,10.77A10.77,10.77,0,0,0,473.59,210.68Z"/><polygon class="cls-28" points="457.8 206.3 465.12 201.54 467.43 213.02 460.11 213.02 457.8 206.3"/><polygon class="cls-11" points="460.11 213.02 467.43 213.02 464.34 219.82 460.11 217.02 460.11 213.02"/></g><g id="bg-29" data-name="bg"><polygon class="cls-29" points="113.8 287.81 110.95 291.16 107.34 288.5 110.2 285.15 113.8 287.81"/><polygon class="cls-29" points="111.92 281.24 110.69 282.68 109.14 281.54 110.37 280.1 111.92 281.24"/><polygon class="cls-29" points="118.03 287.7 116.8 289.14 115.25 288 116.48 286.55 118.03 287.7"/><polygon class="cls-29" points="119.39 282.44 118.16 283.88 116.6 282.74 117.83 281.29 119.39 282.44"/></g><g id="m"><polygon class="cls-30" points="225.25 355.3 321.63 355.44 380.54 330.2 317.98 220.14 226.05 231.96 211.17 263.31 209.44 350.92 225.25 355.3"/><polygon class="cls-31" points="205.92 268.09 201.41 383.47 230.23 408.7 217.88 257.13 204.59 243.19 205.92 268.09"/><polygon class="cls-32" points="313.79 211.1 317.25 205.79 384.66 330.86 368.52 373.17 313.79 211.1"/></g><g id="B-4" data-name="B"><path class="cls-33" d="M284.37,202.07l29.88,19.59q-6.19,26.78-12.41,53.54l-46.76,11.22-21.86-24.31-6.17-13.35-19.07-23Z"/><polygon class="cls-32" points="260.06 210.64 264.11 218.74 256.34 225.85 217.41 225.72 208.18 221.73 206.19 206.72 224.72 195.36 243.72 194.17 260.06 210.64"/><polygon class="cls-32" points="260.06 210.64 275.13 214.89 295.33 201.01 297.19 168.33 269.16 178.56 241.79 197.82 260.06 210.64"/><polygon class="cls-16" points="278.65 241.99 264.18 231.63 256.34 225.85 275.33 214.36 290.68 216.02 278.65 241.99"/><polygon class="cls-34" points="275.33 214.36 271.55 229.63 256.34 225.85 260.06 210.64 275.33 214.36"/><path class="cls-35" d="M278.65,242l34.27-18.22q-5.54,25.71-11.08,51.43l-19.73,16.07L253,307.48l-13.22-17.07-6.51-28.3Z"/><path class="cls-33" d="M284.7,271.15l8.83,13,27.63-4.12L317.08,221l-38.43,21Z"/><path class="cls-35" d="M275.33,214.36,278.65,242l38.49-21-3.35-9.9.27-19.52-16.87-23.25Z"/><polygon class="cls-16" points="293.53 284.17 284.7 271.15 280.18 286.09 293.53 284.17"/><polygon class="cls-36" points="295.33 250.03 292 256.4 285.56 253.15 288.88 246.64 295.33 250.03"/><polygon class="cls-36" points="300.24 271.08 296.92 277.59 290.48 274.2 293.73 267.76 300.24 271.08"/></g><g id="H-10" data-name="H"><polygon class="cls-37" points="201.41 193.77 179.29 183.07 180.82 161.62 195.9 164.14 201.41 193.77"/><polygon class="cls-38" points="271.28 171.05 254.74 191.51 260.06 210.64 224.72 195.36 218.74 153.45 206.59 129.41 205.06 98.25 238.74 78.66 269.69 82.18 276.6 88.96 300.24 159.69 271.28 171.05"/><polygon class="cls-39" points="199.61 145.21 224.72 195.36 260.06 210.64 264.11 196.49 245.44 180.28 220.07 113.93 214.49 107.82 206.19 128.68 199.61 145.21"/><polygon class="cls-40" points="230.1 77.2 267.5 51.03 252.42 47.84 178.09 81.78 198.49 96.39 230.1 77.2"/><polygon class="cls-37" points="279.85 77.8 280.18 86.03 300.24 101.71 288.42 124.29 276.6 88.96 270.09 82.25 272.88 76.53 279.85 77.8"/><polygon class="cls-41" points="272.61 133.39 263.38 136.84 252.09 107.55 261.32 104.1 272.61 133.39"/><polygon class="cls-42" points="272.61 133.39 270.09 138.44 263.38 136.84 272.61 133.39"/><polygon class="cls-42" points="207.85 161.55 218.74 153.45 214.36 174.64 207.85 161.55"/><polygon class="cls-43" points="229.57 112 233.89 113.93 240.6 105.49 247.3 105.49 247.3 104.1 239.93 102.24 229.57 112"/><polygon class="cls-43" points="259.52 99.25 261.32 104.1 268.03 95.6 273.14 96.19 273.14 95.13 266.37 92.74 259.52 99.25"/><polygon class="cls-39" points="233.89 113.93 259.99 128.01 252.09 107.55 247.3 105.49 240.6 105.49 233.89 113.93"/><polygon class="cls-39" points="266.77 118.11 273.14 96.19 268.03 95.6 261.32 104.1 266.77 118.11"/><path class="cls-42" d="M253.51,148l28.2-6.32-1.6,14.63-14.63,5.32Z"/><polygon class="cls-40" points="276.6 88.96 279.85 77.8 300.24 101.71 276.6 88.96"/><polygon class="cls-20" points="288.88 95.6 288.42 124.29 291.87 134.72 300.24 101.71 288.88 95.6"/><polygon class="cls-38" points="207.85 161.55 218.74 153.45 206.32 128.48 197.42 140.63 207.85 161.55"/><polygon class="cls-42" points="202.27 142.09 206.26 136.98 211.5 148.4 202.27 142.09"/><polygon class="cls-39" points="232.89 99.32 273.14 85.37 270.09 82.25 232.89 99.32"/><polygon class="cls-37" points="169.19 143.42 198.15 172.18 201.41 193.77 224.72 195.36 197.42 140.63 189.32 129.87 169.19 143.42"/><polygon class="cls-43" points="169.19 143.42 207.85 161.55 201.41 193.77 169.19 143.42"/><polygon class="cls-43" points="230.17 155.71 211.04 116.59 214.49 107.82 210.18 89.22 178.09 81.78 169.19 143.42 197.42 140.63 206.19 128.68 222.06 160.16 230.17 155.71"/><polygon class="cls-40" points="296.52 116.59 301.37 129.07 295.72 146.28 291.87 134.72 296.52 116.59"/><polygon class="cls-18" points="267.5 51.03 250.43 81.52 214.49 107.82 178.09 81.78 267.5 51.03"/><polygon class="cls-40" points="267.5 51.03 214.49 107.82 286.56 74.67 267.5 51.03"/><path class="cls-37" d="M270.75,107.23a3.92,3.92,0,0,0,0,7.84,3.92,3.92,0,1,0,0-7.84Z"/><path class="cls-37" d="M245.18,116.46a3.92,3.92,0,0,0,0,7.84,3.92,3.92,0,0,0,0-7.84Z"/><path class="cls-44" d="M258.83,149.61l19.95-4q-.66,3.66-1.33,7.32l-11.52,4.65Z"/><polygon class="cls-42" points="264.11 196.49 271.28 171.05 238.47 182.81 264.11 196.49"/></g><g id="h-11" data-name="h"><polygon class="cls-39" points="195.1 297.09 197.29 314.35 193.24 319.81 185.6 311.17 195.1 297.09"/><polygon class="cls-39" points="187.46 309.24 190.38 319.47 190.32 334.94 182.61 331.56 171.38 312.76 187.46 309.24"/><polygon class="cls-31" points="217.41 225.72 206.19 206.72 194.37 225.65 205.72 236.21 217.41 225.72"/><polygon class="cls-16" points="206.19 264.83 195.1 297.09 185.47 303.46 180.15 294.23 179.95 260.29 196.03 244.01 206.19 264.83"/><polygon class="cls-35" points="227.04 248.76 206.19 264.83 179.95 260.29 194.37 225.65 217.41 225.72 227.04 248.76"/><polygon class="cls-38" points="180.15 294.23 171.38 312.76 190.38 319.47 195.1 297.09 180.15 294.23"/></g><g id="F-4" data-name="F"><polygon class="cls-39" points="264.97 366.46 252.02 396.28 246.97 401.4 234.29 394.43 236.28 355.3 262.58 360.88 264.97 366.46"/><polygon class="cls-39" points="290.94 366.6 288.42 392.37 295.59 402.39 304.43 393.76 321.63 355.44 296.45 357.69 290.94 366.6"/><polygon class="cls-38" points="288.42 392.37 304.82 392.63 321.43 405.85 310.8 406.91 286.36 406.71 288.42 392.37"/><polygon class="cls-39" points="310.8 406.91 324.49 398.88 322.96 407.11 310.8 406.91"/><polygon class="cls-38" points="252.02 396.28 252.09 409.97 222.2 408.97 234.29 394.43 252.02 396.28"/><polygon class="cls-39" points="222.2 408.97 237.21 400.4 252.09 409.97 222.2 408.97"/><polygon class="cls-42" points="236.28 355.3 264.97 366.46 269.82 355.3 236.28 355.3"/><polygon class="cls-42" points="290.94 366.6 321.63 355.44 292.14 355.44 290.94 366.6"/><polygon class="cls-45" points="250.49 290.41 239.73 290.41 236.28 355.3 269.82 355.3 279.58 334.05 290.41 325.35 293.53 284.17 250.49 290.41"/><polygon class="cls-34" points="321.16 280.05 293.53 284.17 279.52 333.85 279.58 334.05 292.14 355.44 321.63 355.44 321.16 280.05"/><polygon class="cls-36" points="239.73 290.41 284.37 316.71 321.16 289.61 321.16 280.05 239.73 290.41"/></g><g id="h-12" data-name="h"><polygon class="cls-38" points="354.24 160.23 356.33 154.66 374.19 138.78 349.6 126.07 344.23 153.62 345.61 149.24 354.24 160.23"/><polygon class="cls-39" points="344.92 147.73 339.56 124.82 343.74 122.28 355.11 140.74 347.65 152.64 344.92 147.73"/><polygon class="cls-39" points="374.19 138.78 375.43 121.15 357.98 115.01 349.6 126.07 374.19 138.78"/><path class="cls-33" d="M297.19,168.33l16.6,42.77,39.48-13.6-6-12-10.64-6Z"/><path class="cls-16" d="M344.29,145.62q-7.47,16-15,31.92,12.14,10.07,24.28,20.12l4.32-45.06Z"/></g></g></svg>